<?xml version="1.0" encoding="UTF-8" standalone="no"?>
<svg
   xmlns:dc="http://purl.org/dc/elements/1.1/"
   xmlns:cc="http://creativecommons.org/ns#"
   xmlns:rdf="http://www.w3.org/1999/02/22-rdf-syntax-ns#"
   xmlns:svg="http://www.w3.org/2000/svg"
   xmlns="http://www.w3.org/2000/svg"
   id="svg1745"
   version="1.1"
   viewBox="0 0 11.492957 11.209469"
   height="11.209469mm"
   width="11.492957mm">
  <defs
     id="defs1739" />
  <metadata
     id="metadata1742">
    <rdf:RDF>
      <cc:Work
         rdf:about="">
        <dc:format>image/svg+xml</dc:format>
        <dc:type
           rdf:resource="http://purl.org/dc/dcmitype/StillImage" />
        <dc:title></dc:title>
      </cc:Work>
    </rdf:RDF>
  </metadata>
  <g
     transform="translate(-96.306998,-119.03812)"
     id="layer1">
    <path
       d="m 102.05304,119.03812 c -3.172881,0 -5.746042,2.57281 -5.746042,5.74675 0,2.53895 1.646414,4.69265 3.929942,5.45254 0.28752,0.0529 0.39229,-0.12453 0.39229,-0.27693 0,-0.13653 -0.005,-0.49777 -0.008,-0.9772 -1.598435,0.34713 -1.935691,-0.77046 -1.935691,-0.77046 -0.261408,-0.66393 -0.638174,-0.84067 -0.638174,-0.84067 -0.521759,-0.35631 0.03951,-0.34925 0.03951,-0.34925 0.576791,0.0406 0.88018,0.59231 0.88018,0.59231 0.512586,0.87806 1.345145,0.62442 1.672525,0.47731 0.0522,-0.37112 0.20073,-0.62442 0.36477,-0.768 -1.276,-0.14499 -2.617614,-0.63817 -2.617614,-2.84021 0,-0.62724 0.224014,-1.14053 0.591608,-1.54199 -0.05927,-0.14535 -0.256469,-0.7299 0.05644,-1.52083 0,0 0.482247,-0.15452 1.580086,0.58914 0.45826,-0.12771 0.95003,-0.19121 1.43863,-0.19368 0.48824,0.002 0.97966,0.066 1.43863,0.19368 1.09714,-0.74366 1.57868,-0.58914 1.57868,-0.58914 0.31362,0.79093 0.11641,1.37548 0.0575,1.52083 0.3683,0.40146 0.59055,0.91475 0.59055,1.54199 0,2.20768 -1.34373,2.69346 -2.62361,2.83562 0.20602,0.17745 0.38982,0.52811 0.38982,1.06398 0,0.76835 -0.007,1.38818 -0.007,1.57657 0,0.15381 0.10372,0.33267 0.39511,0.27657 2.28177,-0.76164 3.92677,-2.91394 3.92677,-5.45218 0,-3.17394 -2.57316,-5.74675 -5.7471,-5.74675"
       style="fill:#ffffff;fill-opacity:1;fill-rule:evenodd;stroke:none;stroke-width:0.03527778"
       id="path106" />
  </g>
</svg>
